# xmcd
#
# Track frame offsets:
#	150
#	13247
#	28010
#	46622
#	59017
#	70182
#	82505
#	95445
#	108527
#	126077
#	140390
#	152957
#
# Disc length: 2223 seconds
#
# Revision: 1
# Processed by: cddbd v1.5.1PL2 Copyright (c) Steve Scherf et al.
# Submitted via: audiograbber 1.83.01
#
DISCID=9908ad0c
DTITLE=Camões and Camargo - Camões and Camargo
DYEAR=2002
DGENRE=Country
TTITLE0=Mulher, Vida e Paixão
TTITLE1=Cartas Marcadas
TTITLE2=Resposta do Caminheiro
TTITLE3=Quarenta graus de saudade
TTITLE4=Cabra macho
TTITLE5=Orgulho de caboclo
TTITLE6=Fugido da vida
TTITLE7=Canja de Arroz
TTITLE8=Depois de você, só você
TTITLE9=Eu e evocê
TTITLE10=Escravo da paixão
TTITLE11=Efeito da cachaça
EXTD=Sertanejo\nGravações MM\nGT Musik
EXTT0=
EXTT1=
EXTT2=
EXTT3=
EXTT4=
EXTT5=
EXTT6=
EXTT7=
EXTT8=
EXTT9=
EXTT10=
EXTT11=
PLAYORDER=
